<svg width="21" height="20" viewBox="0 0 21 20" fill="none" xmlns="http://www.w3.org/2000/svg">
<path d="M10.6753 5.6435C9.89942 5.6435 8.69844 4.76137 7.4337 4.79326C5.7651 4.81451 4.23466 5.76041 3.37378 7.25897C1.64141 10.2667 2.9274 14.7092 4.61727 17.1537C5.44626 18.344 6.42404 19.6832 7.72066 19.6407C8.96415 19.5875 9.43178 18.8329 10.941 18.8329C12.4395 18.8329 12.8646 19.6407 14.1825 19.6088C15.5217 19.5875 16.3719 18.3972 17.1903 17.1962C18.1362 15.8146 18.5294 14.4754 18.5507 14.401C18.5188 14.3904 15.9468 13.402 15.9149 10.4261C15.8936 7.93916 17.9449 6.74882 18.0405 6.69568C16.8714 4.98456 15.0753 4.79326 14.4482 4.75074C12.8115 4.62321 11.4405 5.6435 10.6753 5.6435ZM13.4386 3.13528C14.1294 2.30629 14.5864 1.14783 14.4589 0C13.4704 0.0425123 12.2801 0.65894 11.568 1.48793C10.9303 2.22126 10.3777 3.40098 10.5265 4.52756C11.6212 4.61258 12.7477 3.96427 13.4386 3.13528Z" fill="#3A383F"/>
</svg>
