<svg width="21" height="20" viewBox="0 0 21 20" fill="none" xmlns="http://www.w3.org/2000/svg">
<path fill-rule="evenodd" clip-rule="evenodd" d="M18.384 10.3636C18.384 9.76063 18.3299 9.18085 18.2294 8.62427H10.2207V11.9135H14.7971C14.6 12.9765 14.0009 13.8771 13.1003 14.48V16.6136H15.8484C17.4563 15.1332 18.384 12.9533 18.384 10.3636Z" fill="#4285F4"/>
<path fill-rule="evenodd" clip-rule="evenodd" d="M10.2203 18.6734C12.5162 18.6734 14.4411 17.912 15.848 16.6133L13.0999 14.4797C12.3384 14.9899 11.3644 15.2914 10.2203 15.2914C8.00554 15.2914 6.13093 13.7955 5.46225 11.7856H2.62134V13.9888C4.02054 16.7679 6.89623 18.6734 10.2203 18.6734Z" fill="#34A853"/>
<path fill-rule="evenodd" clip-rule="evenodd" d="M5.46265 11.7858C5.29258 11.2756 5.19595 10.7306 5.19595 10.1701C5.19595 9.60967 5.29258 9.06468 5.46265 8.55447V6.35132H2.62174C2.04583 7.49928 1.71729 8.79798 1.71729 10.1701C1.71729 11.5423 2.04583 12.841 2.62174 13.9889L5.46265 11.7858Z" fill="#FBBC05"/>
<path fill-rule="evenodd" clip-rule="evenodd" d="M10.2203 5.04879C11.4688 5.04879 12.5897 5.47782 13.4709 6.32043L15.9098 3.8815C14.4372 2.50936 12.5124 1.66675 10.2203 1.66675C6.89623 1.66675 4.02054 3.57229 2.62134 6.35135L5.46225 8.55451C6.13093 6.54461 8.00554 5.04879 10.2203 5.04879Z" fill="#EA4335"/>
</svg>
